<svg width="32" height="32" viewBox="0 0 32 32" fill="none" xmlns="http://www.w3.org/2000/svg">
<path d="M8.01335 2.66663C5.44001 2.66663 3.34668 4.75996 3.34668 7.33329C3.34668 9.43996 4.76001 11.204 6.68001 11.7826V21.3293C6.67868 21.568 6.71601 23.704 8.24535 25.2373C9.18935 26.1866 10.4533 26.6666 12 26.6666V29.3333L17.3333 25.3333L12 21.3333V24C9.56935 24 9.35468 21.9546 9.34668 21.3333V11.7826C11.2667 11.204 12.68 9.43996 12.68 7.33329C12.68 4.75996 10.5853 2.66663 8.01335 2.66663ZM8.01335 9.33329C6.91068 9.33329 6.01335 8.43596 6.01335 7.33329C6.01335 6.23063 6.91068 5.33329 8.01335 5.33329C9.11601 5.33329 10.0133 6.23063 10.0133 7.33329C10.0133 8.43596 9.11601 9.33329 8.01335 9.33329ZM25.3467 20.2173V10.6626C25.34 8.52129 23.9107 5.33329 20 5.33329V2.66663L14.6667 6.66663L20 10.6666V7.99996C22.4387 7.99996 22.668 10.052 22.68 10.6666V20.2173C20.76 20.796 19.3467 22.56 19.3467 24.6666C19.3467 27.24 21.44 29.3333 24.0133 29.3333C26.5867 29.3333 28.68 27.24 28.68 24.6666C28.68 22.56 27.2667 20.796 25.3467 20.2173ZM24.0133 26.6666C22.9107 26.6666 22.0133 25.7693 22.0133 24.6666C22.0133 23.564 22.9107 22.6666 24.0133 22.6666C25.116 22.6666 26.0133 23.564 26.0133 24.6666C26.0133 25.7693 25.116 26.6666 24.0133 26.6666Z" fill="black"/>
</svg>
