<svg width="32" height="32" viewBox="0 0 32 32" fill="none" xmlns="http://www.w3.org/2000/svg">
<path d="M8 22.6666H18.6667V20H8V22.6666ZM8 17.3333H24V14.6666H8V17.3333ZM8 12H11.9867V9.33329H8V12Z" fill="black"/>
<path d="M18.6667 28L14.6667 32V29.3333H5.33335C4.62611 29.3333 3.94783 29.0524 3.44774 28.5523C2.94764 28.0522 2.66669 27.3739 2.66669 26.6667V5.33333C2.66669 4.62609 2.94764 3.94781 3.44774 3.44772C3.94783 2.94762 4.62611 2.66667 5.33335 2.66667H10.6667V5.33333H5.33335V26.6667H14.6667V24L18.6667 28ZM13.3334 4L17.3334 0V2.66667H26.6667C27.3739 2.66667 28.0522 2.94762 28.5523 3.44772C29.0524 3.94781 29.3334 4.62609 29.3334 5.33333V26.6667C29.3334 27.3739 29.0524 28.0522 28.5523 28.5523C28.0522 29.0524 27.3739 29.3333 26.6667 29.3333H21.3334V26.6667H26.6667V5.33333H17.3334V8L13.3334 4Z" fill="black"/>
</svg>
