<svg width="32" height="32" viewBox="0 0 32 32" fill="none" xmlns="http://www.w3.org/2000/svg">
<path d="M16 24C21.3333 24 22.6666 18.6667 22.6666 18.6667H9.33331C9.33331 18.6667 10.6666 24 16 24Z" fill="#D90062"/>
<path d="M16 2.66666C8.64802 2.66666 2.66669 8.648 2.66669 16C2.66669 23.352 8.64802 29.3333 16 29.3333C23.352 29.3333 29.3334 23.352 29.3334 16C29.3334 8.648 23.352 2.66666 16 2.66666ZM16 26.6667C10.1187 26.6667 5.33335 21.8813 5.33335 16C5.33335 10.1187 10.1187 5.33333 16 5.33333C21.8814 5.33333 26.6667 10.1187 26.6667 16C26.6667 21.8813 21.8814 26.6667 16 26.6667Z" fill="#D90062"/>
<path d="M17.3334 16L20 16.016C20.016 15.4 20.2587 14.6667 21.3334 14.6667C22.408 14.6667 22.6507 15.4 22.6667 16H25.3334C25.3334 14.392 24.268 12 21.3334 12C18.3987 12 17.3334 14.392 17.3334 16ZM10.6667 14.6667C11.7414 14.6667 11.984 15.4 12 16H14.6667C14.6667 14.392 13.6014 12 10.6667 12C7.73202 12 6.66669 14.392 6.66669 16L9.33335 16.016C9.34935 15.4 9.59202 14.6667 10.6667 14.6667Z" fill="#D90062"/>
</svg>
