<svg width="32" height="32" viewBox="0 0 32 32" fill="none" xmlns="http://www.w3.org/2000/svg">
<path d="M3.2 6C3.2 3.79375 4.635 2 6.4 2H25.6C27.365 2 28.8 3.79375 28.8 6V22H25.6V6H6.4V22H3.2V6ZM0 25.2C0 24.5375 0.43 24 0.96 24H31.04C31.57 24 32 24.5375 32 25.2C32 27.85 30.28 30 28.16 30H3.84C1.72 30 0 27.85 0 25.2ZM14.05 13.0625L12.5 15L14.05 16.9375C14.52 17.525 14.52 18.475 14.05 19.0562C13.58 19.6375 12.82 19.6437 12.355 19.0562L9.955 16.0562C9.485 15.4687 9.485 14.5187 9.955 13.9375L12.355 10.9375C12.825 10.35 13.585 10.35 14.05 10.9375C14.515 11.525 14.52 12.475 14.05 13.0562V13.0625ZM19.65 10.9375L22.05 13.9375C22.52 14.525 22.52 15.475 22.05 16.0562L19.65 19.0562C19.18 19.6437 18.42 19.6437 17.955 19.0562C17.49 18.4687 17.485 17.5187 17.955 16.9375L19.505 15L17.955 13.0625C17.485 12.475 17.485 11.525 17.955 10.9437C18.425 10.3625 19.185 10.3562 19.65 10.9437V10.9375Z" fill="black"/>
</svg>
