<svg width="32" height="32" viewBox="0 0 32 32" fill="none" xmlns="http://www.w3.org/2000/svg">
<path d="M24.9733 7.21338L23.2667 8.54671L16 13.9467L8.73333 8.49338L7.02666 7.16005C6.6246 6.82744 6.1338 6.6201 5.61505 6.56371C5.0963 6.50733 4.57241 6.60437 4.10827 6.84282C3.64414 7.08128 3.26017 7.45066 3.00392 7.90521C2.74767 8.35976 2.63041 8.8795 2.66666 9.40005V24.8534C2.66666 25.3343 2.85771 25.7955 3.19778 26.1356C3.53784 26.4757 3.99907 26.6667 4.48 26.6667H8.73333V16.3734L16 21.8267L23.2667 16.3734V26.6667H27.52C28.0009 26.6667 28.4622 26.4757 28.8022 26.1356C29.1423 25.7955 29.3333 25.3343 29.3333 24.8534V9.40005C29.3584 8.884 29.233 8.37178 28.9723 7.92568C28.7117 7.47957 28.3271 7.11877 27.8653 6.88715C27.4035 6.65553 26.8843 6.56306 26.3709 6.62097C25.8575 6.67889 25.372 6.88469 24.9733 7.21338Z" fill="black"/>
</svg>
