<svg width="32" height="32" viewBox="0 0 32 32" fill="none" xmlns="http://www.w3.org/2000/svg">
<path d="M12.6667 16C15.608 16 18 13.608 18 10.6667C18 7.72537 15.608 5.33337 12.6667 5.33337C9.72535 5.33337 7.33335 7.72537 7.33335 10.6667C7.33335 13.608 9.72535 16 12.6667 16ZM14.6667 17.3334H10.6667C6.25469 17.3334 2.66669 20.9214 2.66669 25.3334V26.6667H22.6667V25.3334C22.6667 20.9214 19.0787 17.3334 14.6667 17.3334Z" fill="black"/>
<path d="M22.1387 14.7307C22.9507 13.3468 23.3014 11.7404 23.14 10.144C22.9014 7.76533 21.5734 5.66267 19.4027 4.224L17.9294 6.44533C19.4214 7.43467 20.3294 8.844 20.4867 10.4107C20.5592 11.1388 20.4686 11.8739 20.2213 12.5626C19.9741 13.2513 19.5765 13.8763 19.0574 14.392L17.468 15.9813L19.6254 16.6147C25.268 18.268 25.3334 23.9427 25.3334 24H28C28 21.6147 26.7254 16.9533 22.1387 14.7307Z" fill="black"/>
</svg>
