<svg width="32" height="32" viewBox="0 0 32 32" fill="none" xmlns="http://www.w3.org/2000/svg">
<path d="M21.0573 9.05737L17.3333 5.33337V14.6667H26.6666L22.9426 10.9427L28.9426 4.94271L27.0573 3.05737L21.0573 9.05737Z" fill="black"/>
<path d="M21.896 17.924C21.6398 17.6911 21.3031 17.5669 20.9571 17.5776C20.611 17.5883 20.2827 17.7331 20.0413 17.9813L16.852 21.2627C16.084 21.116 14.54 20.6347 12.9507 19.0493C11.3613 17.4587 10.88 15.9107 10.7373 15.148L14.016 11.956C14.2646 11.7148 14.4095 11.3864 14.4202 11.0403C14.4309 10.6941 14.3065 10.3574 14.0733 10.1013L9.14668 4.68399C8.9134 4.42714 8.58918 4.27133 8.24288 4.24967C7.89658 4.22801 7.55547 4.3422 7.29201 4.56799L4.39868 7.04933C4.16777 7.28055 4.02972 7.58844 4.01068 7.91466C3.99068 8.24799 3.60934 16.144 9.73201 22.2693C15.0733 27.6093 21.7654 28 23.6067 28C23.8774 28 24.0413 27.992 24.0854 27.9893C24.4114 27.9713 24.7193 27.8331 24.9494 27.6013L27.4307 24.7067C27.6563 24.4432 27.7705 24.1023 27.7491 23.7561C27.7277 23.4099 27.5724 23.0856 27.316 22.852L21.896 17.924Z" fill="black"/>
</svg>
